<svg width="14.000000" height="14.000000" viewBox="0 0 14 14" fill="none" xmlns="http://www.w3.org/2000/svg" xmlns:xlink="http://www.w3.org/1999/xlink">
	<desc>
			Created with Pixso.
	</desc>
	<defs/>
	<path id="Vector" d="M12.96 0L1.03 0C0.46 0 0 0.45 0 1L0 12.98C0 13.54 0.46 14 1.03 14L12.96 14C13.53 14 14 13.54 14 12.99L14 1C14 0.45 13.53 0 12.96 0ZM4.15 11.93L2.07 11.93L2.07 5.24L4.15 5.24L4.15 11.93ZM3.11 4.33C2.44 4.33 1.9 3.79 1.9 3.13C1.9 2.46 2.44 1.93 3.11 1.93C3.77 1.93 4.31 2.46 4.31 3.13C4.31 3.79 3.77 4.33 3.11 4.33ZM11.93 11.93L9.85 11.93L9.85 8.68C9.85 7.9 9.84 6.9 8.77 6.9C7.69 6.9 7.53 7.75 7.53 8.62L7.53 11.93L5.45 11.93L5.45 5.24L7.44 5.24L7.44 6.16L7.47 6.16C7.75 5.63 8.43 5.08 9.43 5.08C11.54 5.08 11.93 6.46 11.93 8.26L11.93 11.93Z" fill="#FFFFFF" fill-opacity="1.000000" fill-rule="nonzero"/>
</svg>
