<svg width="43" height="45" viewBox="0 0 43 45" fill="none" xmlns="http://www.w3.org/2000/svg">
<path d="M18.2583 19.2204C17.0591 20.4059 15.2516 20.2945 14.1138 19.0417C13.0339 17.8591 13.0221 15.9716 14.2213 14.789C15.3638 13.6653 17.2279 13.7149 18.3101 14.9014C19.4494 16.1503 19.3966 18.0938 18.2583 19.2204ZM28.608 30.5781C27.4102 31.7607 25.5999 31.6487 24.5149 30.4637C23.3812 29.2138 23.4293 27.3965 24.6276 26.208C25.7659 25.0838 27.5762 25.073 28.7122 26.3199C29.7949 27.5079 29.7468 29.4509 28.608 30.5781Z" fill="#64EE85"/>
<path d="M24.0964 25.1475C22.6705 26.5569 20.5136 26.4199 19.2324 25.0134C17.8762 23.5294 17.8705 21.2865 19.2941 19.88C20.648 18.5408 22.8713 18.6022 24.22 20.0872C25.5069 21.499 25.4475 23.8087 24.0964 25.1475Z" fill="#64EE85"/>
<path d="M13.3923 24.3792C12.4954 25.2633 11.0345 25.1681 10.1815 24.2314C9.32842 23.2918 9.36756 21.8348 10.2687 20.9482C11.167 20.0592 12.6255 20.0371 13.4781 20.9738C14.3326 21.9099 14.2934 23.4902 13.3923 24.3792Z" fill="#64EE85"/>
<path d="M22.4295 34.2992C21.5326 35.1887 20.1307 35.1489 19.2791 34.2152C18.4237 33.2791 18.4048 31.7548 19.3059 30.8687C20.2028 29.9772 21.7231 30.0243 22.5748 30.9585C23.4283 31.8947 23.3292 33.4131 22.4295 34.2992Z" fill="#64EE85"/>
<path d="M11.2228 5.17405C10.8267 4.74058 10.8442 4.01059 11.3233 3.53539C11.7425 3.12156 12.4432 3.13825 12.8436 3.57467C13.2991 4.07785 13.2816 4.80194 12.8587 5.21872C12.3814 5.69392 11.6807 5.67428 11.2228 5.17405Z" fill="#64EE85"/>
<path d="M3.47719 12.7315C3.07967 12.2951 3.09995 11.571 3.51869 11.1542C4.00062 10.6785 4.69758 10.6987 5.09793 11.1321C5.55157 11.6329 5.53412 12.3624 5.0536 12.8376C4.63345 13.2514 3.93272 13.2352 3.47719 12.7315Z" fill="#64EE85"/>
<path d="M0.82789 8.91425C0.502988 8.55932 0.519021 7.96679 0.858541 7.62856C1.25088 7.23976 1.82146 7.2535 2.14542 7.61432C2.51747 8.01981 2.50097 8.60988 2.10911 8.99574C1.76911 9.33397 1.19853 9.32268 0.82789 8.91425Z" fill="#64EE85"/>
<path d="M7.84442 1.7901C7.5181 1.43223 7.53413 0.842157 7.87648 0.500976C8.26599 0.115122 8.83657 0.132303 9.16147 0.48723C9.53211 0.895666 9.51608 1.48819 9.12516 1.87405C8.7847 2.21228 8.21412 2.19854 7.84442 1.7901Z" fill="#64EE85"/>
<path d="M2.56266 3.26331C2.16372 2.82443 2.184 2.09445 2.60038 1.67816C3.0196 1.26727 3.72316 1.28691 4.12445 1.72578C4.57432 2.22062 4.55592 2.95305 4.13671 3.36689C3.7175 3.78072 3.01677 3.75863 2.56266 3.26331Z" fill="#64EE85"/>
<path d="M14.8182 9.51841C14.1349 8.77174 14.2259 7.62007 14.887 6.96863C15.6052 6.25878 16.6544 6.28627 17.3363 7.03343C17.962 7.72365 17.9338 8.8169 17.2184 9.5243C16.5559 10.1811 15.4454 10.2091 14.8182 9.51841Z" fill="#64EE85"/>
<path d="M6.60782 17.6268C5.9269 16.8801 5.95519 15.784 6.67243 15.0766C7.33307 14.4286 8.44217 14.3947 9.12451 15.1438C9.74885 15.8321 9.66445 16.9867 9.0038 17.6352C8.2842 18.345 7.23405 18.317 6.60782 17.6268Z" fill="#64EE85"/>
<path d="M5.71923 7.97742C5.09348 7.29014 5.18213 6.13503 5.83854 5.4836C6.5586 4.77374 7.6097 4.80418 8.23451 5.49243C8.91968 6.23911 8.8928 7.33482 8.17132 8.04467C7.51209 8.69611 6.40299 8.72703 5.71923 7.97742Z" fill="#64EE85"/>
<path d="M9.84671 13.2593C8.99791 12.3255 9.09316 10.8096 9.99053 9.91764C10.8945 9.02861 12.2964 9.07033 13.1462 10.0075C14.0002 10.9412 14.0214 12.4625 13.1193 13.3515C12.2191 14.2406 10.7021 14.1964 9.84671 13.2593Z" fill="#64EE85"/>
<path d="M37.8952 33.3992C38.3059 33.8243 39.0067 33.8184 39.4688 33.3294C39.8772 32.9014 39.8715 32.1719 39.4608 31.7492C38.9878 31.2657 38.2923 31.2686 37.8839 31.6986C37.4222 32.1856 37.4222 32.9127 37.8952 33.3992Z" fill="#64EE85"/>
<path d="M30.4702 41.3031C30.8843 41.7253 31.5822 41.7224 31.991 41.2948C32.4578 40.8024 32.4526 40.0759 32.0443 39.6503C31.5718 39.1697 30.8682 39.1751 30.4056 39.6615C29.9977 40.0901 30.0034 40.8196 30.4702 41.3031Z" fill="#64EE85"/>
<path d="M34.0828 44.1417C34.4186 44.4853 34.9878 44.4824 35.3211 44.1358C35.7026 43.7387 35.697 43.1437 35.3612 42.7991C34.9774 42.4049 34.4082 42.4049 34.0263 42.805C33.6985 43.1545 33.6985 43.7475 34.0828 44.1417Z" fill="#64EE85"/>
<path d="M41.0723 36.9895C41.408 37.3307 41.9805 37.3307 42.3106 36.9787C42.6921 36.581 42.6869 35.9861 42.3535 35.6419C41.9696 35.2448 41.3976 35.2502 41.019 35.6527C40.6884 35.9998 40.6884 36.5953 41.0723 36.9895Z" fill="#64EE85"/>
<path d="M39.5436 42.4556C39.96 42.8748 40.6607 42.8723 41.0686 42.4448C41.4742 42.0196 41.4713 41.2842 41.0583 40.8621C40.5909 40.381 39.8874 40.3834 39.479 40.8115C39.0735 41.2391 39.082 41.972 39.5436 42.4556Z" fill="#64EE85"/>
<path d="M33.7968 29.5657C34.4976 30.2927 35.6071 30.223 36.2461 29.5519C36.944 28.8195 36.9388 27.7262 36.2353 27.0022C35.5855 26.334 34.5358 26.3394 33.8398 27.0724C33.2003 27.7459 33.1466 28.9034 33.7968 29.5657Z" fill="#64EE85"/>
<path d="M25.8356 37.9455C26.5392 38.672 27.5893 38.6642 28.2905 37.9312C28.9271 37.2548 28.9781 36.1055 28.2745 35.379C27.6242 34.7138 26.5175 34.7752 25.8785 35.4512C25.1858 36.1865 25.191 37.2803 25.8356 37.9455Z" fill="#64EE85"/>
<path d="M35.0886 39.0691C35.7332 39.7372 36.8452 39.6675 37.4818 38.9969C38.1825 38.2586 38.1745 37.1678 37.5275 36.5026C36.8239 35.7785 35.7705 35.781 35.0754 36.5163C34.4332 37.1869 34.3822 38.3474 35.0886 39.0691Z" fill="#64EE85"/>
<path d="M30.0965 34.6606C30.9774 35.5692 32.4387 35.499 33.3139 34.582C34.1844 33.665 34.1731 32.2055 33.2922 31.2973C32.4114 30.3882 30.9505 30.3352 30.08 31.2551C29.2048 32.1751 29.2156 33.7543 30.0965 34.6606Z" fill="#64EE85"/>
<path d="M23.2357 14.5145C24.1222 13.6112 24.0845 12.0879 23.2197 11.168C22.3496 10.2451 20.9505 10.2289 20.064 11.1321C19.1765 12.0325 19.1011 13.5503 19.9673 14.4733C20.835 15.3957 22.3548 15.4148 23.2357 14.5145Z" fill="#64EE85"/>
<path d="M32.4163 24.2954C33.3028 23.395 33.3212 21.9331 32.4592 21.0122C31.5892 20.0868 30.1283 20.0112 29.2418 20.9115C28.3557 21.8119 28.3397 23.395 29.2045 24.3175C30.0689 25.2404 31.5298 25.1986 32.4163 24.2954Z" fill="#64EE85"/>
<path d="M24.5581 18.8345C23.4221 17.5846 23.5263 15.7005 24.7297 14.5204C25.8685 13.3967 27.6788 13.3854 28.8176 14.6328C29.8918 15.8178 29.8437 17.7643 28.7049 18.885C27.5072 20.0701 25.6431 20.0171 24.5581 18.8345ZM13.6486 29.6045C12.5136 28.3576 12.6211 26.473 13.7599 25.3518C14.9577 24.1667 16.71 24.2138 17.845 25.4612C18.9258 26.6468 18.9367 28.5338 17.7389 29.7164C16.5973 30.8436 14.7304 30.793 13.6486 29.6045Z" fill="#64EE85"/>
<path d="M38.0522 11.5059C38.4714 11.0921 39.175 11.1142 39.6263 11.609C40.0238 12.0484 40.0021 12.7754 39.5885 13.1892C39.1076 13.6679 38.4068 13.6477 38.0093 13.2089C37.5524 12.7106 37.5741 11.9811 38.0522 11.5059Z" fill="#64EE85"/>
<path d="M30.7898 3.44799C31.2085 3.03416 31.9126 3.05085 32.3101 3.48726C32.7665 3.98799 32.7453 4.71159 32.3261 5.13181C31.848 5.60701 31.1444 5.58443 30.6903 5.08664C30.2928 4.64434 30.3116 3.92074 30.7898 3.44799Z" fill="#64EE85"/>
<path d="M34.4579 0.685479C34.7988 0.347243 35.3708 0.363934 35.6957 0.718861C36.0664 1.1273 36.0532 1.71737 35.7066 2.0556C35.3199 2.4444 34.7502 2.42477 34.3772 2.01928C34.0523 1.6614 34.0684 1.07133 34.4579 0.685479Z" fill="#64EE85"/>
<path d="M41.3005 7.98855C41.6443 7.65277 42.2139 7.66749 42.5388 8.02193C42.9067 8.43037 42.8935 9.02584 42.552 9.36162C42.1597 9.74698 41.5905 9.73078 41.2199 9.32529C40.8974 8.96987 40.9087 8.3744 41.3005 7.98855Z" fill="#64EE85"/>
<path d="M39.8898 2.49186C40.309 2.07508 41.0097 2.09471 41.4077 2.53113C41.808 2.96755 41.7864 3.69998 41.3671 4.11382C40.889 4.58362 40.1854 4.56693 39.7879 4.13051C39.3927 3.69655 39.4116 2.96411 39.8898 2.49186Z" fill="#64EE85"/>
<path d="M33.8791 15.25C34.5935 14.5431 35.7054 14.6349 36.3312 15.3226C37.0102 16.0693 36.9838 17.1596 36.2637 17.8724C35.6054 18.5238 34.5553 18.4934 33.8706 17.7462C33.2453 17.0619 33.2184 15.9014 33.8791 15.25Z" fill="#64EE85"/>
<path d="M26.0887 6.70257C26.8059 5.99566 27.8561 6.0202 28.5408 6.76982C29.1665 7.45758 29.1934 8.60975 28.4733 9.32255C27.8132 9.97398 26.7064 9.88464 26.0807 9.19687C25.4012 8.44725 25.428 7.354 26.0887 6.70257Z" fill="#64EE85"/>
<path d="M35.3532 5.77651C36.0167 5.12262 37.1263 5.21736 37.7548 5.90267C38.4367 6.64934 38.4046 7.74505 37.7464 8.39698C37.0239 9.10683 35.9738 9.0818 35.2943 8.32972C34.6685 7.64442 34.6393 6.48685 35.3532 5.77651Z" fill="#64EE85"/>
<path d="M30.2814 10.0768C31.1811 9.19367 32.6396 9.29136 33.4936 10.2256C34.3452 11.1652 34.3047 12.6217 33.4073 13.5083C32.5076 14.3978 31.0491 14.4194 30.1951 13.4827C29.3444 12.5456 29.3845 10.9663 30.2814 10.0768Z" fill="#64EE85"/>
<path d="M10.9387 39.2733C10.5303 39.7039 10.5369 40.4334 11.0047 40.9145C11.4183 41.3396 12.1195 41.3366 12.5264 40.9061C12.9923 40.4167 12.9871 39.6872 12.5759 39.2645C12.1058 38.7834 11.4074 38.7834 10.9387 39.2733Z" fill="#64EE85"/>
<path d="M3.34372 31.5507C2.94101 31.9788 2.94101 32.7082 3.35409 33.1309C3.82565 33.6169 4.52355 33.6115 4.93333 33.1834C5.39781 32.6945 5.3898 31.9645 4.9239 31.478C4.51082 31.0529 3.81008 31.0617 3.34372 31.5507Z" fill="#64EE85"/>
<path d="M0.618055 35.3082C0.287966 35.6607 0.290323 36.2503 0.623713 36.5969C1.00897 36.9945 1.58097 36.9886 1.91012 36.6391C2.29302 36.2419 2.28736 35.647 1.9021 35.2523C1.56777 34.9086 0.996714 34.9116 0.618055 35.3082Z" fill="#64EE85"/>
<path d="M7.49267 42.5865C7.16211 42.936 7.16352 43.5261 7.49927 43.8726C7.88217 44.2668 8.45275 44.2644 8.78426 43.9173C9.1615 43.5148 9.1615 42.9222 8.77483 42.531C8.44097 42.1834 7.87133 42.1834 7.49267 42.5865Z" fill="#64EE85"/>
<path d="M2.2404 40.998C1.83628 41.4261 1.83628 42.1556 2.24983 42.5832C2.65914 43.0024 3.3627 42.9999 3.77107 42.5694C4.22895 42.0829 4.22753 41.3505 3.81964 40.9254C3.40703 40.5061 2.70488 40.512 2.2404 40.998Z" fill="#64EE85"/>
<path d="M14.6203 35.0063C13.9233 35.7387 13.9879 36.8938 14.6339 37.559C15.3413 38.2855 16.3905 38.2801 17.086 37.5477C17.7278 36.8712 17.7212 35.7785 17.0162 35.0539C16.3711 34.3853 15.2583 34.3322 14.6203 35.0063Z" fill="#64EE85"/>
<path d="M6.57278 26.7218C5.87582 27.4572 5.88384 28.5504 6.58598 29.2745C7.23579 29.9397 8.34253 29.9932 9.03807 29.2608C9.67703 28.5867 9.61809 27.4316 8.97064 26.7665C8.26614 26.0424 7.21174 26.0478 6.57278 26.7218Z" fill="#64EE85"/>
<path d="M5.49495 36.351C4.85175 37.025 4.91871 38.1821 5.56379 38.8477C6.26877 39.5723 7.31892 39.5664 7.95977 38.8958C8.65908 38.1546 8.6539 37.0643 7.94751 36.3372C7.301 35.6745 6.18908 35.6185 5.49495 36.351Z" fill="#64EE85"/>
<path d="M9.72427 31.1561C8.85425 32.0761 8.92121 33.5974 9.80208 34.5026C10.6844 35.4137 12.0877 35.4 12.9554 34.483C13.8282 33.566 13.8806 32.0451 12.9997 31.1389C12.116 30.2307 10.5971 30.242 9.72427 31.1561Z" fill="#64EE85"/>
</svg>
