<svg width="14" height="14" viewBox="0 0 14 14" fill="none" xmlns="http://www.w3.org/2000/svg">
<path fill-rule="evenodd" clip-rule="evenodd" d="M14 7C14 10.866 10.866 14 7 14C3.13401 14 0 10.866 0 7C0 3.13401 3.13401 0 7 0C10.866 0 14 3.13401 14 7ZM7.25093 5.16766C6.57007 5.45085 5.20933 6.03698 3.16868 6.92606C2.83732 7.05783 2.66373 7.18674 2.64793 7.31279C2.62122 7.52582 2.888 7.60971 3.25127 7.72394C3.30069 7.73948 3.35189 7.75558 3.40438 7.77264C3.76178 7.88882 4.24256 8.02474 4.4925 8.03014C4.71921 8.03503 4.97225 7.94157 5.25162 7.74973C7.15826 6.4627 8.14247 5.81217 8.20426 5.79815C8.24785 5.78826 8.30826 5.77581 8.34919 5.81219C8.39012 5.84857 8.3861 5.91747 8.38176 5.93595C8.35534 6.04862 7.30816 7.02217 6.76624 7.52598C6.59729 7.68305 6.47746 7.79446 6.45296 7.81991C6.39808 7.8769 6.34215 7.93082 6.2884 7.98264C5.95636 8.30273 5.70736 8.54276 6.30219 8.93474C6.58803 9.12311 6.81676 9.27887 7.04495 9.43427C7.29417 9.60399 7.54274 9.77326 7.86435 9.98409C7.94629 10.0378 8.02454 10.0936 8.10076 10.1479C8.39079 10.3547 8.65135 10.5404 8.97326 10.5108C9.16031 10.4936 9.35352 10.3177 9.45164 9.79316C9.68354 8.55345 10.1394 5.86738 10.2447 4.76052C10.2539 4.66354 10.2423 4.53943 10.233 4.48495C10.2237 4.43047 10.2042 4.35285 10.1334 4.29538C10.0495 4.22733 9.92003 4.21298 9.86213 4.214C9.59884 4.21864 9.1949 4.35909 7.25093 5.16766Z" fill="white"/>
</svg>

