<svg width="14.000000" height="11.375488" viewBox="0 0 14 11.3755" fill="none" xmlns="http://www.w3.org/2000/svg" xmlns:xlink="http://www.w3.org/1999/xlink">
	<desc>
			Created with Pixso.
	</desc>
	<defs/>
	<path id="Vector" d="M4.4 11.37C9.68 11.37 12.57 6.99 12.57 3.2C12.57 3.08 12.57 2.95 12.56 2.83C13.12 2.42 13.61 1.92 14 1.34C13.47 1.57 12.92 1.73 12.35 1.79C12.95 1.43 13.39 0.87 13.61 0.2C13.05 0.54 12.43 0.77 11.79 0.9C11.35 0.44 10.78 0.13 10.16 0.03C9.53 -0.07 8.89 0.04 8.34 0.34C7.78 0.63 7.33 1.11 7.07 1.68C6.81 2.26 6.75 2.9 6.89 3.52C5.75 3.46 4.63 3.17 3.61 2.65C2.59 2.13 1.69 1.41 0.97 0.52C0.6 1.15 0.49 1.9 0.66 2.61C0.82 3.32 1.25 3.95 1.86 4.35C1.4 4.34 0.96 4.22 0.56 3.99L0.56 4.03C0.56 4.69 0.79 5.34 1.21 5.85C1.63 6.36 2.21 6.72 2.86 6.85C2.44 6.96 2 6.98 1.57 6.9C1.75 7.47 2.11 7.97 2.59 8.32C3.07 8.68 3.65 8.88 4.25 8.89C3.23 9.69 1.97 10.12 0.68 10.12C0.45 10.12 0.22 10.11 0 10.08C1.31 10.92 2.84 11.37 4.4 11.37Z" fill="#FFFFFF" fill-opacity="1.000000" fill-rule="nonzero"/>
</svg>
