<svg width="14.000000" height="9.846436" viewBox="0 0 14 9.84644" fill="none" xmlns="http://www.w3.org/2000/svg" xmlns:xlink="http://www.w3.org/1999/xlink">
	<desc>
			Created with Pixso.
	</desc>
	<defs/>
	<path id="Vector" d="M13.86 2.12C13.86 2.12 13.72 1.15 13.3 0.73C12.76 0.17 12.17 0.17 11.89 0.14C9.94 0 7 0 7 0L6.99 0C6.99 0 4.05 0 2.1 0.14C1.82 0.17 1.23 0.17 0.69 0.73C0.27 1.15 0.14 2.12 0.14 2.12C0.14 2.12 0 3.25 0 4.39L0 5.45C0 6.58 0.13 7.71 0.13 7.71C0.13 7.71 0.27 8.68 0.69 9.1C1.22 9.66 1.92 9.64 2.23 9.7C3.36 9.81 7 9.84 7 9.84C7 9.84 9.94 9.84 11.89 9.7C12.17 9.66 12.76 9.66 13.3 9.1C13.72 8.68 13.86 7.71 13.86 7.71C13.86 7.71 14 6.58 14 5.45L14 4.39C14 3.25 13.86 2.12 13.86 2.12ZM5.55 6.74L5.55 2.8L9.33 4.77L5.55 6.74Z" fill="#FFFFFF" fill-opacity="1.000000" fill-rule="nonzero"/>
</svg>
